{
  "header": {
    "PPQ": 480,
    "timeSignature": [
      4,
      4
    ],
    "bpm": 125,
    "name": ""
  },
  "startTime": 0,
  "duration": 97.71500000000026,
  "tracks": [
    {
      "startTime": 0,
      "duration": 97.71500000000026,
      "length": 209,
      "notes": [
        {
          "name": "A5",
          "midi": 81,
          "time": 0,
          "velocity": 0.5039370078740157,
          "duration": 1.367
        },
        {
          "name": "D6",
          "midi": 86,
          "time": 1.44,
          "velocity": 0.5039370078740157,
          "duration": 0.22699999999999987
        },
        {
          "name": "C6",
          "midi": 84,
          "time": 1.6799999999999997,
          "velocity": 0.5039370078740157,
          "duration": 0.45500000000000007
        },
        {
          "name": "A#5",
          "midi": 82,
          "time": 2.1599999999999997,
          "velocity": 0.5039370078740157,
          "duration": 0.45500000000000007
        },
        {
          "name": "A5",
          "midi": 81,
          "time": 2.6399999999999997,
          "velocity": 0.5039370078740157,
          "duration": 0.45500000000000007
        },
        {
          "name": "F5",
          "midi": 77,
          "time": 3.1199999999999997,
          "velocity": 0.5039370078740157,
          "duration": 0.22699999999999987
        },
        {
          "name": "G5",
          "midi": 79,
          "time": 3.3599999999999994,
          "velocity": 0.5039370078740157,
          "duration": 0.22699999999999987
        },
        {
          "name": "F5",
          "midi": 77,
          "time": 3.8399999999999994,
          "velocity": 0.5039370078740157,
          "duration": 0.911
        },
        {
          "name": "E5",
          "midi": 76,
          "time": 4.8,
          "velocity": 0.5039370078740157,
          "duration": 0.2270000000000003
        },
        {
          "name": "F5",
          "midi": 77,
          "time": 5.04,
          "velocity": 0.5039370078740157,
          "duration": 0.2270000000000003
        },
        {
          "name": "G5",
          "midi": 79,
          "time": 5.28,
          "velocity": 0.5039370078740157,
          "duration": 0.2270000000000003
        },
        {
          "name": "A5",
          "midi": 81,
          "time": 5.5200000000000005,
          "velocity": 0.5039370078740157,
          "duration": 0.45500000000000007
        },
        {
          "name": "G5",
          "midi": 79,
          "time": 6.000000000000001,
          "velocity": 0.5039370078740157,
          "duration": 0.45500000000000007
        },
        {
          "name": "F5",
          "midi": 77,
          "time": 6.480000000000001,
          "velocity": 0.5039370078740157,
          "duration": 0.45500000000000007
        },
        {
          "name": "G5",
          "midi": 79,
          "time": 6.960000000000002,
          "velocity": 0.5039370078740157,
          "duration": 0.45500000000000007
        },
        {
          "name": "A5",
          "midi": 81,
          "time": 7.440000000000002,
          "velocity": 0.5039370078740157,
          "duration": 0.2270000000000003
        },
        {
          "name": "C6",
          "midi": 84,
          "time": 7.680000000000002,
          "velocity": 0.5039370078740157,
          "duration": 1.367
        },
        {
          "name": "D6",
          "midi": 86,
          "time": 9.120000000000003,
          "velocity": 0.5039370078740157,
          "duration": 0.2270000000000003
        },
        {
          "name": "C6",
          "midi": 84,
          "time": 9.360000000000003,
          "velocity": 0.5039370078740157,
          "duration": 0.45500000000000007
        },
        {
          "name": "A#5",
          "midi": 82,
          "time": 9.840000000000003,
          "velocity": 0.5039370078740157,
          "duration": 0.45500000000000007
        },
        {
          "name": "A5",
          "midi": 81,
          "time": 10.320000000000004,
          "velocity": 0.5039370078740157,
          "duration": 0.45500000000000007
        },
        {
          "name": "F5",
          "midi": 77,
          "time": 10.800000000000004,
          "velocity": 0.5039370078740157,
          "duration": 0.2270000000000003
        },
        {
          "name": "G5",
          "midi": 79,
          "time": 11.040000000000004,
          "velocity": 0.5039370078740157,
          "duration": 0.2270000000000003
        },
        {
          "name": "C5",
          "midi": 72,
          "time": 11.280000000000005,
          "velocity": 0.5039370078740157,
          "duration": 0.2270000000000003
        },
        {
          "name": "F5",
          "midi": 77,
          "time": 11.520000000000005,
          "velocity": 0.5039370078740157,
          "duration": 0.9109999999999996
        },
        {
          "name": "E5",
          "midi": 76,
          "time": 12.480000000000004,
          "velocity": 0.5039370078740157,
          "duration": 0.2270000000000003
        },
        {
          "name": "F5",
          "midi": 77,
          "time": 12.720000000000004,
          "velocity": 0.5039370078740157,
          "duration": 0.2270000000000003
        },
        {
          "name": "E5",
          "midi": 76,
          "time": 12.960000000000004,
          "velocity": 0.5039370078740157,
          "duration": 0.2270000000000003
        },
        {
          "name": "D5",
          "midi": 74,
          "time": 13.200000000000005,
          "velocity": 0.5039370078740157,
          "duration": 2.051
        },
        {
          "name": "A5",
          "midi": 81,
          "time": 15.840000000000005,
          "velocity": 0.5039370078740157,
          "duration": 0.22699999999999854
        },
        {
          "name": "A#5",
          "midi": 82,
          "time": 16.080000000000005,
          "velocity": 0.5039370078740157,
          "duration": 0.2270000000000003
        },
        {
          "name": "A5",
          "midi": 81,
          "time": 16.320000000000007,
          "velocity": 0.5039370078740157,
          "duration": 0.2270000000000003
        },
        {
          "name": "F5",
          "midi": 77,
          "time": 16.56000000000001,
          "velocity": 0.5039370078740157,
          "duration": 0.6829999999999998
        },
        {
          "name": "A5",
          "midi": 81,
          "time": 17.28000000000001,
          "velocity": 0.5039370078740157,
          "duration": 0.2270000000000003
        },
        {
          "name": "A#5",
          "midi": 82,
          "time": 17.52000000000001,
          "velocity": 0.5039370078740157,
          "duration": 0.2270000000000003
        },
        {
          "name": "A5",
          "midi": 81,
          "time": 17.760000000000012,
          "velocity": 0.5039370078740157,
          "duration": 0.2270000000000003
        },
        {
          "name": "F5",
          "midi": 77,
          "time": 18.000000000000014,
          "velocity": 0.5039370078740157,
          "duration": 0.9110000000000014
        },
        {
          "name": "A5",
          "midi": 81,
          "time": 19.680000000000014,
          "velocity": 0.5039370078740157,
          "duration": 0.2270000000000003
        },
        {
          "name": "A#5",
          "midi": 82,
          "time": 19.920000000000016,
          "velocity": 0.5039370078740157,
          "duration": 0.2270000000000003
        },
        {
          "name": "A5",
          "midi": 81,
          "time": 20.160000000000018,
          "velocity": 0.5039370078740157,
          "duration": 0.2270000000000003
        },
        {
          "name": "F5",
          "midi": 77,
          "time": 20.40000000000002,
          "velocity": 0.5039370078740157,
          "duration": 0.4549999999999983
        },
        {
          "name": "F5",
          "midi": 77,
          "time": 20.880000000000017,
          "velocity": 0.5039370078740157,
          "duration": 0.2270000000000003
        },
        {
          "name": "A5",
          "midi": 81,
          "time": 21.12000000000002,
          "velocity": 0.5039370078740157,
          "duration": 0.2270000000000003
        },
        {
          "name": "C6",
          "midi": 84,
          "time": 21.36000000000002,
          "velocity": 0.5039370078740157,
          "duration": 0.4549999999999983
        },
        {
          "name": "C6",
          "midi": 84,
          "time": 21.840000000000018,
          "velocity": 0.5039370078740157,
          "duration": 1.1389999999999993
        },
        {
          "name": "A5",
          "midi": 81,
          "time": 23.520000000000017,
          "velocity": 0.5039370078740157,
          "duration": 0.2270000000000003
        },
        {
          "name": "A#5",
          "midi": 82,
          "time": 23.76000000000002,
          "velocity": 0.5039370078740157,
          "duration": 0.2270000000000003
        },
        {
          "name": "A5",
          "midi": 81,
          "time": 24.00000000000002,
          "velocity": 0.5039370078740157,
          "duration": 0.2270000000000003
        },
        {
          "name": "F5",
          "midi": 77,
          "time": 24.240000000000023,
          "velocity": 0.5039370078740157,
          "duration": 0.6829999999999998
        },
        {
          "name": "A5",
          "midi": 81,
          "time": 24.960000000000022,
          "velocity": 0.5039370078740157,
          "duration": 0.2270000000000003
        },
        {
          "name": "A#5",
          "midi": 82,
          "time": 25.200000000000024,
          "velocity": 0.5039370078740157,
          "duration": 0.2270000000000003
        },
        {
          "name": "A5",
          "midi": 81,
          "time": 25.440000000000026,
          "velocity": 0.5039370078740157,
          "duration": 0.2270000000000003
        },
        {
          "name": "F5",
          "midi": 77,
          "time": 25.680000000000028,
          "velocity": 0.5039370078740157,
          "duration": 0.9110000000000014
        },
        {
          "name": "A5",
          "midi": 81,
          "time": 27.360000000000028,
          "velocity": 0.5039370078740157,
          "duration": 0.2270000000000003
        },
        {
          "name": "A#5",
          "midi": 82,
          "time": 27.60000000000003,
          "velocity": 0.5039370078740157,
          "duration": 0.2270000000000003
        },
        {
          "name": "A5",
          "midi": 81,
          "time": 27.840000000000032,
          "velocity": 0.5039370078740157,
          "duration": 0.2270000000000003
        },
        {
          "name": "F5",
          "midi": 77,
          "time": 28.080000000000034,
          "velocity": 0.5039370078740157,
          "duration": 0.4549999999999983
        },
        {
          "name": "F5",
          "midi": 77,
          "time": 28.56000000000003,
          "velocity": 0.5039370078740157,
          "duration": 0.2270000000000003
        },
        {
          "name": "C6",
          "midi": 84,
          "time": 28.800000000000033,
          "velocity": 0.7874015748031497,
          "duration": 0.23900000000000077
        },
        {
          "name": "A#5",
          "midi": 82,
          "time": 29.280000000000033,
          "velocity": 0.7874015748031497,
          "duration": 0.23900000000000077
        },
        {
          "name": "A5",
          "midi": 81,
          "time": 29.760000000000034,
          "velocity": 0.7874015748031497,
          "duration": 0.23900000000000077
        },
        {
          "name": "G5",
          "midi": 79,
          "time": 30.240000000000034,
          "velocity": 0.7874015748031497,
          "duration": 0.23900000000000077
        },
        {
          "name": "D5",
          "midi": 74,
          "time": 31.200000000000035,
          "velocity": 0.5039370078740157,
          "duration": 0.2270000000000003
        },
        {
          "name": "F5",
          "midi": 77,
          "time": 31.440000000000037,
          "velocity": 0.5039370078740157,
          "duration": 0.2270000000000003
        },
        {
          "name": "F5",
          "midi": 77,
          "time": 31.68000000000004,
          "velocity": 0.5039370078740157,
          "duration": 0.2270000000000003
        },
        {
          "name": "G5",
          "midi": 79,
          "time": 31.92000000000004,
          "velocity": 0.5039370078740157,
          "duration": 0.45500000000000185
        },
        {
          "name": "D5",
          "midi": 74,
          "time": 32.40000000000004,
          "velocity": 0.5039370078740157,
          "duration": 0.4549999999999983
        },
        {
          "name": "F5",
          "midi": 77,
          "time": 32.88000000000004,
          "velocity": 0.5039370078740157,
          "duration": 0.22699999999999676
        },
        {
          "name": "F5",
          "midi": 77,
          "time": 33.12000000000003,
          "velocity": 0.5039370078740157,
          "duration": 0.22699999999999676
        },
        {
          "name": "G5",
          "midi": 79,
          "time": 33.36000000000003,
          "velocity": 0.5039370078740157,
          "duration": 0.22699999999999676
        },
        {
          "name": "D5",
          "midi": 74,
          "time": 35.04000000000003,
          "velocity": 0.5039370078740157,
          "duration": 0.22699999999999676
        },
        {
          "name": "F5",
          "midi": 77,
          "time": 35.28000000000002,
          "velocity": 0.5039370078740157,
          "duration": 0.22699999999999676
        },
        {
          "name": "F5",
          "midi": 77,
          "time": 35.52000000000002,
          "velocity": 0.5039370078740157,
          "duration": 0.22699999999999676
        },
        {
          "name": "G5",
          "midi": 79,
          "time": 35.76000000000001,
          "velocity": 0.5039370078740157,
          "duration": 0.4549999999999983
        },
        {
          "name": "A5",
          "midi": 81,
          "time": 36.24000000000001,
          "velocity": 0.5039370078740157,
          "duration": 0.4549999999999983
        },
        {
          "name": "F5",
          "midi": 77,
          "time": 36.720000000000006,
          "velocity": 0.5039370078740157,
          "duration": 0.22699999999999676
        },
        {
          "name": "F5",
          "midi": 77,
          "time": 36.96,
          "velocity": 0.5039370078740157,
          "duration": 0.22699999999999676
        },
        {
          "name": "F5",
          "midi": 77,
          "time": 37.199999999999996,
          "velocity": 0.5039370078740157,
          "duration": 0.22699999999999676
        },
        {
          "name": "D5",
          "midi": 74,
          "time": 38.879999999999995,
          "velocity": 0.5039370078740157,
          "duration": 0.4549999999999983
        },
        {
          "name": "F5",
          "midi": 77,
          "time": 39.35999999999999,
          "velocity": 0.5039370078740157,
          "duration": 0.22699999999999676
        },
        {
          "name": "G5",
          "midi": 79,
          "time": 39.59999999999999,
          "velocity": 0.7874015748031497,
          "duration": 0.11899999999999977
        },
        {
          "name": "D5",
          "midi": 74,
          "time": 40.079999999999984,
          "velocity": 0.5039370078740157,
          "duration": 0.4549999999999983
        },
        {
          "name": "F5",
          "midi": 77,
          "time": 40.55999999999998,
          "velocity": 0.7874015748031497,
          "duration": 0.11899999999999977
        },
        {
          "name": "E5",
          "midi": 76,
          "time": 41.03999999999998,
          "velocity": 0.5039370078740157,
          "duration": 0.4549999999999983
        },
        {
          "name": "G5",
          "midi": 79,
          "time": 41.03999999999998,
          "velocity": 0.7874015748031497,
          "duration": 0.11899999999999977
        },
        {
          "name": "A5",
          "midi": 81,
          "time": 41.75999999999998,
          "velocity": 0.5039370078740157,
          "duration": 0.22699999999999676
        },
        {
          "name": "F5",
          "midi": 77,
          "time": 41.99999999999997,
          "velocity": 0.5039370078740157,
          "duration": 1.5949999999999989
        },
        {
          "name": "A5",
          "midi": 81,
          "time": 43.67999999999997,
          "velocity": 0.5039370078740157,
          "duration": 0.22699999999999676
        },
        {
          "name": "G5",
          "midi": 79,
          "time": 43.919999999999966,
          "velocity": 0.5039370078740157,
          "duration": 1.5949999999999989
        },
        {
          "name": "C6",
          "midi": 84,
          "time": 45.599999999999966,
          "velocity": 0.5039370078740157,
          "duration": 0.4549999999999983
        },
        {
          "name": "C6",
          "midi": 84,
          "time": 46.07999999999996,
          "velocity": 0.5039370078740157,
          "duration": 0.9110000000000014
        },
        {
          "name": "A#5",
          "midi": 82,
          "time": 47.039999999999964,
          "velocity": 0.5039370078740157,
          "duration": 0.22699999999999676
        },
        {
          "name": "A5",
          "midi": 81,
          "time": 47.27999999999996,
          "velocity": 0.5039370078740157,
          "duration": 0.4549999999999983
        },
        {
          "name": "G5",
          "midi": 79,
          "time": 47.759999999999955,
          "velocity": 0.5039370078740157,
          "duration": 1.5949999999999989
        },
        {
          "name": "F5",
          "midi": 77,
          "time": 50.399999999999956,
          "velocity": 0.5039370078740157,
          "duration": 0.4549999999999983
        },
        {
          "name": "G5",
          "midi": 79,
          "time": 50.87999999999995,
          "velocity": 0.5039370078740157,
          "duration": 0.4549999999999983
        },
        {
          "name": "F5",
          "midi": 77,
          "time": 51.35999999999995,
          "velocity": 0.5039370078740157,
          "duration": 0.4549999999999983
        },
        {
          "name": "A5",
          "midi": 81,
          "time": 51.83999999999995,
          "velocity": 0.5039370078740157,
          "duration": 0.22699999999999676
        },
        {
          "name": "A5",
          "midi": 81,
          "time": 52.07999999999994,
          "velocity": 0.5039370078740157,
          "duration": 0.22699999999999676
        },
        {
          "name": "G5",
          "midi": 79,
          "time": 52.319999999999936,
          "velocity": 0.5039370078740157,
          "duration": 0.22699999999999676
        },
        {
          "name": "A5",
          "midi": 81,
          "time": 52.55999999999993,
          "velocity": 0.5039370078740157,
          "duration": 0.22699999999999676
        },
        {
          "name": "A5",
          "midi": 81,
          "time": 53.03999999999993,
          "velocity": 0.5039370078740157,
          "duration": 0.22699999999999676
        },
        {
          "name": "G5",
          "midi": 79,
          "time": 53.27999999999992,
          "velocity": 0.5039370078740157,
          "duration": 0.22699999999999676
        },
        {
          "name": "A5",
          "midi": 81,
          "time": 53.51999999999992,
          "velocity": 0.5039370078740157,
          "duration": 0.22699999999999676
        },
        {
          "name": "A5",
          "midi": 81,
          "time": 53.999999999999915,
          "velocity": 0.5039370078740157,
          "duration": 0.22699999999999676
        },
        {
          "name": "G5",
          "midi": 79,
          "time": 54.23999999999991,
          "velocity": 0.5039370078740157,
          "duration": 0.22699999999999676
        },
        {
          "name": "A5",
          "midi": 81,
          "time": 54.479999999999905,
          "velocity": 0.5039370078740157,
          "duration": 0.22699999999999676
        },
        {
          "name": "C6",
          "midi": 84,
          "time": 54.7199999999999,
          "velocity": 0.5039370078740157,
          "duration": 0.22699999999999676
        },
        {
          "name": "A5",
          "midi": 81,
          "time": 54.959999999999894,
          "velocity": 0.5039370078740157,
          "duration": 0.22699999999999676
        },
        {
          "name": "G5",
          "midi": 79,
          "time": 55.19999999999989,
          "velocity": 0.5039370078740157,
          "duration": 0.22699999999999676
        },
        {
          "name": "E5",
          "midi": 76,
          "time": 55.439999999999884,
          "velocity": 0.5039370078740157,
          "duration": 0.22699999999999676
        },
        {
          "name": "G5",
          "midi": 79,
          "time": 55.67999999999988,
          "velocity": 0.5039370078740157,
          "duration": 0.22699999999999676
        },
        {
          "name": "G5",
          "midi": 79,
          "time": 55.919999999999874,
          "velocity": 0.5039370078740157,
          "duration": 0.22699999999999676
        },
        {
          "name": "F5",
          "midi": 77,
          "time": 56.15999999999987,
          "velocity": 0.5039370078740157,
          "duration": 0.22699999999999676
        },
        {
          "name": "G5",
          "midi": 79,
          "time": 56.399999999999864,
          "velocity": 0.5039370078740157,
          "duration": 0.22699999999999676
        },
        {
          "name": "G5",
          "midi": 79,
          "time": 56.87999999999986,
          "velocity": 0.5039370078740157,
          "duration": 0.22699999999999676
        },
        {
          "name": "F5",
          "midi": 77,
          "time": 57.119999999999855,
          "velocity": 0.5039370078740157,
          "duration": 0.22699999999999676
        },
        {
          "name": "G5",
          "midi": 79,
          "time": 57.35999999999985,
          "velocity": 0.5039370078740157,
          "duration": 0.22699999999999676
        },
        {
          "name": "A5",
          "midi": 81,
          "time": 57.83999999999985,
          "velocity": 0.5039370078740157,
          "duration": 0.22699999999999676
        },
        {
          "name": "A#5",
          "midi": 82,
          "time": 58.07999999999984,
          "velocity": 0.5039370078740157,
          "duration": 0.22699999999999676
        },
        {
          "name": "A5",
          "midi": 81,
          "time": 58.31999999999984,
          "velocity": 0.5039370078740157,
          "duration": 0.4549999999999983
        },
        {
          "name": "F5",
          "midi": 77,
          "time": 58.799999999999834,
          "velocity": 0.5039370078740157,
          "duration": 0.22699999999999676
        },
        {
          "name": "G5",
          "midi": 79,
          "time": 59.03999999999983,
          "velocity": 0.5039370078740157,
          "duration": 0.22699999999999676
        },
        {
          "name": "F5",
          "midi": 77,
          "time": 59.27999999999982,
          "velocity": 0.5039370078740157,
          "duration": 0.22699999999999676
        },
        {
          "name": "A5",
          "midi": 81,
          "time": 59.51999999999982,
          "velocity": 0.5039370078740157,
          "duration": 0.22699999999999676
        },
        {
          "name": "A5",
          "midi": 81,
          "time": 59.75999999999981,
          "velocity": 0.5039370078740157,
          "duration": 0.22699999999999676
        },
        {
          "name": "G5",
          "midi": 79,
          "time": 59.99999999999981,
          "velocity": 0.5039370078740157,
          "duration": 0.22699999999999676
        },
        {
          "name": "A5",
          "midi": 81,
          "time": 60.2399999999998,
          "velocity": 0.5039370078740157,
          "duration": 0.22699999999999676
        },
        {
          "name": "A5",
          "midi": 81,
          "time": 60.7199999999998,
          "velocity": 0.5039370078740157,
          "duration": 0.22699999999999676
        },
        {
          "name": "G5",
          "midi": 79,
          "time": 60.959999999999795,
          "velocity": 0.5039370078740157,
          "duration": 0.22699999999999676
        },
        {
          "name": "A5",
          "midi": 81,
          "time": 61.19999999999979,
          "velocity": 0.5039370078740157,
          "duration": 0.22699999999999676
        },
        {
          "name": "A5",
          "midi": 81,
          "time": 61.67999999999979,
          "velocity": 0.5039370078740157,
          "duration": 0.22699999999999676
        },
        {
          "name": "G5",
          "midi": 79,
          "time": 61.91999999999978,
          "velocity": 0.5039370078740157,
          "duration": 0.22699999999999676
        },
        {
          "name": "A5",
          "midi": 81,
          "time": 62.159999999999776,
          "velocity": 0.5039370078740157,
          "duration": 0.22699999999999676
        },
        {
          "name": "C6",
          "midi": 84,
          "time": 62.39999999999977,
          "velocity": 0.5039370078740157,
          "duration": 0.22699999999999676
        },
        {
          "name": "A5",
          "midi": 81,
          "time": 62.639999999999766,
          "velocity": 0.5039370078740157,
          "duration": 0.22699999999999676
        },
        {
          "name": "G5",
          "midi": 79,
          "time": 62.87999999999976,
          "velocity": 0.5039370078740157,
          "duration": 0.22699999999999676
        },
        {
          "name": "E5",
          "midi": 76,
          "time": 63.119999999999756,
          "velocity": 0.5039370078740157,
          "duration": 0.22699999999999676
        },
        {
          "name": "G5",
          "midi": 79,
          "time": 63.35999999999975,
          "velocity": 0.5039370078740157,
          "duration": 0.22699999999999676
        },
        {
          "name": "G5",
          "midi": 79,
          "time": 63.599999999999746,
          "velocity": 0.5039370078740157,
          "duration": 0.22699999999999676
        },
        {
          "name": "F5",
          "midi": 77,
          "time": 63.83999999999974,
          "velocity": 0.5039370078740157,
          "duration": 0.22699999999999676
        },
        {
          "name": "G5",
          "midi": 79,
          "time": 64.07999999999974,
          "velocity": 0.5039370078740157,
          "duration": 0.22700000000000387
        },
        {
          "name": "C6",
          "midi": 84,
          "time": 64.55999999999975,
          "velocity": 0.5039370078740157,
          "duration": 0.4549999999999983
        },
        {
          "name": "C6",
          "midi": 84,
          "time": 65.03999999999975,
          "velocity": 0.5039370078740157,
          "duration": 0.6830000000000069
        },
        {
          "name": "A5",
          "midi": 81,
          "time": 67.19999999999976,
          "velocity": 0.5039370078740157,
          "duration": 0.22700000000000387
        },
        {
          "name": "A5",
          "midi": 81,
          "time": 67.43999999999977,
          "velocity": 0.5039370078740157,
          "duration": 0.22700000000000387
        },
        {
          "name": "G5",
          "midi": 79,
          "time": 67.67999999999978,
          "velocity": 0.5039370078740157,
          "duration": 0.22700000000000387
        },
        {
          "name": "A5",
          "midi": 81,
          "time": 67.91999999999979,
          "velocity": 0.5039370078740157,
          "duration": 0.22700000000000387
        },
        {
          "name": "A5",
          "midi": 81,
          "time": 68.39999999999979,
          "velocity": 0.5039370078740157,
          "duration": 0.22700000000000387
        },
        {
          "name": "G5",
          "midi": 79,
          "time": 68.6399999999998,
          "velocity": 0.5039370078740157,
          "duration": 0.22700000000000387
        },
        {
          "name": "A5",
          "midi": 81,
          "time": 68.87999999999981,
          "velocity": 0.5039370078740157,
          "duration": 0.22700000000000387
        },
        {
          "name": "A5",
          "midi": 81,
          "time": 69.35999999999981,
          "velocity": 0.5039370078740157,
          "duration": 0.22700000000000387
        },
        {
          "name": "G5",
          "midi": 79,
          "time": 69.59999999999982,
          "velocity": 0.5039370078740157,
          "duration": 0.22700000000000387
        },
        {
          "name": "A5",
          "midi": 81,
          "time": 69.83999999999983,
          "velocity": 0.5039370078740157,
          "duration": 0.22700000000000387
        },
        {
          "name": "C6",
          "midi": 84,
          "time": 70.07999999999984,
          "velocity": 0.5039370078740157,
          "duration": 0.22700000000000387
        },
        {
          "name": "A5",
          "midi": 81,
          "time": 70.31999999999985,
          "velocity": 0.5039370078740157,
          "duration": 0.22700000000000387
        },
        {
          "name": "G5",
          "midi": 79,
          "time": 70.55999999999986,
          "velocity": 0.5039370078740157,
          "duration": 0.22700000000000387
        },
        {
          "name": "F5",
          "midi": 77,
          "time": 70.79999999999987,
          "velocity": 0.5039370078740157,
          "duration": 0.22700000000000387
        },
        {
          "name": "G5",
          "midi": 79,
          "time": 71.03999999999988,
          "velocity": 0.5039370078740157,
          "duration": 0.22700000000000387
        },
        {
          "name": "G5",
          "midi": 79,
          "time": 71.27999999999989,
          "velocity": 0.5039370078740157,
          "duration": 0.22700000000000387
        },
        {
          "name": "F5",
          "midi": 77,
          "time": 71.5199999999999,
          "velocity": 0.5039370078740157,
          "duration": 0.22700000000000387
        },
        {
          "name": "G5",
          "midi": 79,
          "time": 71.7599999999999,
          "velocity": 0.5039370078740157,
          "duration": 0.22700000000000387
        },
        {
          "name": "G5",
          "midi": 79,
          "time": 72.23999999999991,
          "velocity": 0.5039370078740157,
          "duration": 0.22700000000000387
        },
        {
          "name": "F5",
          "midi": 77,
          "time": 72.47999999999992,
          "velocity": 0.5039370078740157,
          "duration": 0.22700000000000387
        },
        {
          "name": "G5",
          "midi": 79,
          "time": 72.71999999999993,
          "velocity": 0.5039370078740157,
          "duration": 0.22700000000000387
        },
        {
          "name": "A5",
          "midi": 81,
          "time": 73.19999999999993,
          "velocity": 0.5039370078740157,
          "duration": 0.22700000000000387
        },
        {
          "name": "A#5",
          "midi": 82,
          "time": 73.43999999999994,
          "velocity": 0.5039370078740157,
          "duration": 0.22700000000000387
        },
        {
          "name": "A5",
          "midi": 81,
          "time": 73.67999999999995,
          "velocity": 0.5039370078740157,
          "duration": 0.4549999999999983
        },
        {
          "name": "F5",
          "midi": 77,
          "time": 74.15999999999995,
          "velocity": 0.5039370078740157,
          "duration": 0.22700000000000387
        },
        {
          "name": "G5",
          "midi": 79,
          "time": 74.39999999999996,
          "velocity": 0.5039370078740157,
          "duration": 0.22700000000000387
        },
        {
          "name": "F5",
          "midi": 77,
          "time": 74.63999999999997,
          "velocity": 0.5039370078740157,
          "duration": 0.22700000000000387
        },
        {
          "name": "A5",
          "midi": 81,
          "time": 74.87999999999998,
          "velocity": 0.5039370078740157,
          "duration": 0.22700000000000387
        },
        {
          "name": "A5",
          "midi": 81,
          "time": 75.11999999999999,
          "velocity": 0.5039370078740157,
          "duration": 0.22700000000000387
        },
        {
          "name": "G5",
          "midi": 79,
          "time": 75.36,
          "velocity": 0.5039370078740157,
          "duration": 0.22700000000000387
        },
        {
          "name": "A5",
          "midi": 81,
          "time": 75.60000000000001,
          "velocity": 0.5039370078740157,
          "duration": 0.22700000000000387
        },
        {
          "name": "A5",
          "midi": 81,
          "time": 76.08000000000001,
          "velocity": 0.5039370078740157,
          "duration": 0.22700000000000387
        },
        {
          "name": "G5",
          "midi": 79,
          "time": 76.32000000000002,
          "velocity": 0.5039370078740157,
          "duration": 0.22700000000000387
        },
        {
          "name": "A5",
          "midi": 81,
          "time": 76.56000000000003,
          "velocity": 0.5039370078740157,
          "duration": 0.22700000000000387
        },
        {
          "name": "A5",
          "midi": 81,
          "time": 77.04000000000003,
          "velocity": 0.5039370078740157,
          "duration": 0.22700000000000387
        },
        {
          "name": "G5",
          "midi": 79,
          "time": 77.28000000000004,
          "velocity": 0.5039370078740157,
          "duration": 0.22700000000000387
        },
        {
          "name": "A5",
          "midi": 81,
          "time": 77.52000000000005,
          "velocity": 0.5039370078740157,
          "duration": 0.22700000000000387
        },
        {
          "name": "C6",
          "midi": 84,
          "time": 77.76000000000006,
          "velocity": 0.5039370078740157,
          "duration": 0.22700000000000387
        },
        {
          "name": "A5",
          "midi": 81,
          "time": 78.00000000000007,
          "velocity": 0.5039370078740157,
          "duration": 0.22700000000000387
        },
        {
          "name": "G5",
          "midi": 79,
          "time": 78.24000000000008,
          "velocity": 0.5039370078740157,
          "duration": 0.22700000000000387
        },
        {
          "name": "E5",
          "midi": 76,
          "time": 78.48000000000009,
          "velocity": 0.5039370078740157,
          "duration": 0.22700000000000387
        },
        {
          "name": "G5",
          "midi": 79,
          "time": 78.7200000000001,
          "velocity": 0.5039370078740157,
          "duration": 0.22700000000000387
        },
        {
          "name": "G5",
          "midi": 79,
          "time": 78.96000000000011,
          "velocity": 0.5039370078740157,
          "duration": 0.22700000000000387
        },
        {
          "name": "F5",
          "midi": 77,
          "time": 79.20000000000012,
          "velocity": 0.5039370078740157,
          "duration": 0.22700000000000387
        },
        {
          "name": "G5",
          "midi": 79,
          "time": 79.44000000000013,
          "velocity": 0.5039370078740157,
          "duration": 0.22700000000000387
        },
        {
          "name": "C6",
          "midi": 84,
          "time": 79.92000000000013,
          "velocity": 0.5039370078740157,
          "duration": 0.4549999999999983
        },
        {
          "name": "C6",
          "midi": 84,
          "time": 80.40000000000013,
          "velocity": 0.5039370078740157,
          "duration": 1.1389999999999958
        },
        {
          "name": "D5",
          "midi": 74,
          "time": 80.64000000000013,
          "velocity": 0.5039370078740157,
          "duration": 0.9110000000000014
        },
        {
          "name": "F5",
          "midi": 77,
          "time": 80.64000000000013,
          "velocity": 0.5039370078740157,
          "duration": 0.9110000000000014
        },
        {
          "name": "A5",
          "midi": 81,
          "time": 81.60000000000014,
          "velocity": 0.5039370078740157,
          "duration": 0.22700000000000387
        },
        {
          "name": "F5",
          "midi": 77,
          "time": 81.84000000000015,
          "velocity": 0.5039370078740157,
          "duration": 0.22700000000000387
        },
        {
          "name": "G5",
          "midi": 79,
          "time": 82.08000000000015,
          "velocity": 0.5039370078740157,
          "duration": 0.22700000000000387
        },
        {
          "name": "F5",
          "midi": 77,
          "time": 82.32000000000016,
          "velocity": 0.5039370078740157,
          "duration": 2.051000000000002
        },
        {
          "name": "A5",
          "midi": 81,
          "time": 85.44000000000017,
          "velocity": 0.5039370078740157,
          "duration": 0.22700000000000387
        },
        {
          "name": "F5",
          "midi": 77,
          "time": 85.68000000000018,
          "velocity": 0.5039370078740157,
          "duration": 0.22700000000000387
        },
        {
          "name": "G5",
          "midi": 79,
          "time": 85.92000000000019,
          "velocity": 0.5039370078740157,
          "duration": 0.22700000000000387
        },
        {
          "name": "F5",
          "midi": 77,
          "time": 86.1600000000002,
          "velocity": 0.5039370078740157,
          "duration": 2.051000000000002
        },
        {
          "name": "A5",
          "midi": 81,
          "time": 89.2800000000002,
          "velocity": 0.5039370078740157,
          "duration": 0.22700000000000387
        },
        {
          "name": "F5",
          "midi": 77,
          "time": 89.52000000000021,
          "velocity": 0.5039370078740157,
          "duration": 0.22700000000000387
        },
        {
          "name": "G5",
          "midi": 79,
          "time": 89.76000000000022,
          "velocity": 0.5039370078740157,
          "duration": 0.22700000000000387
        },
        {
          "name": "F5",
          "midi": 77,
          "time": 90.00000000000023,
          "velocity": 0.5039370078740157,
          "duration": 2.051000000000002
        },
        {
          "name": "A5",
          "midi": 81,
          "time": 93.12000000000023,
          "velocity": 0.5039370078740157,
          "duration": 0.22700000000000387
        },
        {
          "name": "A#5",
          "midi": 82,
          "time": 93.36000000000024,
          "velocity": 0.5039370078740157,
          "duration": 0.22700000000000387
        },
        {
          "name": "A5",
          "midi": 81,
          "time": 93.60000000000025,
          "velocity": 0.5039370078740157,
          "duration": 0.22700000000000387
        },
        {
          "name": "F5",
          "midi": 77,
          "time": 93.84000000000026,
          "velocity": 0.5039370078740157,
          "duration": 3.875
        }
      ],
      "controlChanges": {
        "7": [
          {
            "number": 7,
            "time": 0,
            "value": 0.7874015748031497
          }
        ],
        "10": [
          {
            "number": 10,
            "time": 0,
            "value": 0.5039370078740157
          }
        ],
        "91": [
          {
            "number": 91,
            "time": 0,
            "value": 0
          }
        ],
        "93": [
          {
            "number": 93,
            "time": 0,
            "value": 0
          }
        ],
        "121": [
          {
            "number": 121,
            "time": 0,
            "value": 0
          }
        ]
      },
      "id": 0,
      "instrumentNumber": 0,
      "instrument": "acoustic grand piano",
      "instrumentFamily": "piano",
      "channelNumber": 0,
      "isPercussion": false
    }
  ]
}